<svg xmlns="http://www.w3.org/2000/svg" xmlns:xlink="http://www.w3.org/1999/xlink" width="512pt" height="370pt" viewBox="0 0 511.5 370"><g id="graph0" class="graph" transform="scale(1 1) rotate(0) translate(4 366)"><title>G</title><polygon fill="#fff" stroke="transparent" points="-4 4 -4 -366 507.5 -366 507.5 4 -4 4"/><g id="clust1" class="cluster"><title>cluster_catalyst</title><g id="a_clust1"><a xlink:href="https://github.com/decentraland/catalyst" xlink:title="Catalyst &lt;BR/&gt; &lt;FONT POINT-SIZE=&quot;15&quot;&gt;Decentralized Servers&lt;/FONT&gt;"><polygon fill="#a6bddb" stroke="#000" points="8 -8 8 -354 348 -354 348 -8 8 -8"/><text x="131" y="-331.8" font-family="Helvetica,Arial,sans-serif" font-size="24" text-anchor="start">Catalyst</text><text x="107.5" y="-307.8" font-family="Helvetica,Arial,sans-serif" font-size="15" text-anchor="start">Decentralized Servers</text></a></g></g><g id="node1" class="node"><title>Comms</title><g id="a_node1"><a xlink:href="https://github.com/decentraland/catalyst/tree/main/comms/lighthouse" xlink:title="Comms&lt;BR /&gt; &lt;FONT POINT-SIZE=&quot;10&quot;&gt;Users P2P networks&lt;/FONT&gt;"><polygon fill="#fff7fb" stroke="#000" stroke-width="2" points="160 -290 16 -290 16 -218 160 -218 160 -290"/><text x="51.5" y="-259.2" font-family="Helvetica,Arial,sans-serif" font-size="21" text-anchor="start">Comms</text><text x="46" y="-238.2" font-family="Helvetica,Arial,sans-serif" font-size="10" text-anchor="start">Users P2P networks</text></a></g></g><g id="node2" class="node"><title>Nginx</title><polygon fill="#fff7fb" stroke="#000" stroke-width="2" points="340 -290 196 -290 196 -218 340 -218 340 -290"/><text x="240.5" y="-259.2" font-family="Helvetica,Arial,sans-serif" font-size="21" text-anchor="start">Nginx</text><text x="238.5" y="-238.2" font-family="Helvetica,Arial,sans-serif" font-size="10" text-anchor="start">Reverse Proxy</text></g><g id="edge5" class="edge"><title>Comms-&gt;Nginx</title><path fill="none" stroke="#000" d="M170.15,-254C175.38,-254 180.61,-254 185.84,-254"/><polygon fill="#000" stroke="#000" points="170.07 -250.5 160.07 -254 170.07 -257.5 170.07 -250.5"/><polygon fill="#000" stroke="#000" points="185.91 -257.5 195.91 -254 185.91 -250.5 185.91 -257.5"/></g><g id="node3" class="node"><title>Lambdas</title><g id="a_node3"><a xlink:href="https://github.com/decentraland/catalyst/tree/main/lambdas" xlink:title="Lambdas&lt;BR/&gt; &lt;FONT POINT-SIZE=&quot;10&quot;&gt;Utilities to retrieve and validate data&lt;/FONT&gt;"><polygon fill="#fff7fb" stroke="#000" stroke-width="2" points="213 -189 33 -189 33 -117 213 -117 213 -189"/><text x="79" y="-158.2" font-family="Helvetica,Arial,sans-serif" font-size="21" text-anchor="start">Lambdas</text><text x="48" y="-137.2" font-family="Helvetica,Arial,sans-serif" font-size="10" text-anchor="start">Utilities to retrieve and validate data</text></a></g></g><g id="node6" class="node"><title>CatalystClient</title><polygon fill="#fff7fb" stroke="#000" stroke-width="2" points="503.5 -189 356.5 -189 356.5 -117 503.5 -117 503.5 -189"/><text x="430" y="-147.7" font-family="Helvetica,Arial,sans-serif" font-size="21" text-anchor="middle">CatalystClient</text></g><g id="edge7" class="edge"><title>Nginx-&gt;CatalystClient</title><path fill="none" stroke="#000" d="M334.28,-212.5C344.11,-206.49 354.25,-200.29 364.07,-194.29"/><polygon fill="#000" stroke="#000" points="332.28 -209.62 325.57 -217.82 335.93 -215.59 332.28 -209.62"/><polygon fill="#000" stroke="#000" points="365.91 -197.27 372.61 -189.07 362.26 -191.3 365.91 -197.27"/></g><g id="edge4" class="edge"><title>Lambdas-&gt;Nginx</title><path fill="none" stroke="#000" d="M182.65,-194.72C191.02,-200.44 199.64,-206.32 208.02,-212.05"/><polygon fill="#000" stroke="#000" points="184.6 -191.82 174.36 -189.07 180.65 -197.6 184.6 -191.82"/><polygon fill="#000" stroke="#000" points="206.24 -215.07 216.47 -217.82 210.19 -209.29 206.24 -215.07"/></g><g id="node4" class="node"><title>Content</title><g id="a_node4"><a xlink:href="https://github.com/decentraland/catalyst/tree/main/content" xlink:title="Content Server&lt;BR/&gt; &lt;FONT POINT-SIZE=&quot;10&quot;&gt;Assets Storage&lt;/FONT&gt;"><polygon fill="#fff7fb" stroke="#000" stroke-width="2" points="203 -88 43 -88 43 -16 203 -16 203 -88"/><text x="51" y="-57.2" font-family="Helvetica,Arial,sans-serif" font-size="21" text-anchor="start">Content Server</text><text x="92.5" y="-36.2" font-family="Helvetica,Arial,sans-serif" font-size="10" text-anchor="start">Assets Storage</text></a></g></g><g id="node5" class="node"><title>TheGraph</title><g id="a_node5"><a xlink:href="https://thegraph.com/hosted-service/subgraph/decentraland/collections-matic-mainnet" xlink:title="The Graph&lt;BR/&gt; &lt;FONT POINT-SIZE=&quot;10&quot;&gt;Query the Blockchain&lt;/FONT&gt;"><polygon fill="#fff7fb" stroke="#000" stroke-width="2" points="500 -88 356 -88 356 -16 500 -16 500 -88"/><text x="376.5" y="-57.2" font-family="Helvetica,Arial,sans-serif" font-size="21" text-anchor="start">The Graph</text><text x="384.5" y="-36.2" font-family="Helvetica,Arial,sans-serif" font-size="10" text-anchor="start">Query the Blockchain</text></a></g></g><g id="edge6" class="edge"><title>Lambdas:ne-&gt;TheGraph</title><path fill="none" stroke="#000" d="M348,-109.07C355.52,-103.9 362.86,-98.83 369.84,-93.97"/><polygon fill="#000" stroke="#000" points="372.11 -96.66 378.31 -88.07 368.11 -90.92 372.11 -96.66"/></g><g id="edge3" class="edge"><title>Content:e-&gt;Nginx</title><path fill="none" stroke="#000" d="M214.13,-52.84C269.55,-62.44 274.48,-151.71 271.98,-207.74"/><polygon fill="#000" stroke="#000" points="214.26 -49.34 204 -52 213.68 -56.32 214.26 -49.34"/><polygon fill="#000" stroke="#000" points="268.47 -207.81 271.43 -217.99 275.46 -208.19 268.47 -207.81"/></g></g></svg>